<svg width="284" height="92" viewBox="0 0 284 92" fill="none" xmlns="http://www.w3.org/2000/svg">
<path d="M13.125 77.1635L3.47529 77.6591L0.812256 25.8116L279.685 11.4879L282.348 63.3354L272.125 63.8605" stroke="#00314D"/>
<path d="M261.125 64.4259L26.125 76.4962" stroke="#004267"/>
<path d="M16.5986 82.5672L15.8495 82.6042L15.8872 83.3532L16.6363 83.3163L16.5986 82.5672ZM14.5977 42.8068L14.56 42.0577L13.8109 42.0947L13.8486 42.8437L14.5977 42.8068ZM21.7479 42.4541L22.4958 42.3975L22.4399 41.6691L21.7102 41.7051L21.7479 42.4541ZM22.2558 49.0722L21.9761 49.7678L23.096 50.219L23.0037 49.0156L22.2558 49.0722ZM21.4826 48.7607L20.761 48.5553L20.5768 49.2041L21.2029 49.4563L21.4826 48.7607ZM25.0008 43.4009L25.4477 44.0036L25.4507 44.0014L25.0008 43.4009ZM38.5661 43.1397L38.1428 43.7585L38.1487 43.7625L38.5661 43.1397ZM43.2796 48.7929L43.962 48.4823L43.962 48.4823L43.2796 48.7929ZM44.0406 65.072L43.3337 64.8204L43.3304 64.83L44.0406 65.072ZM39.918 71.1609L39.4402 70.5823L39.4347 70.5869L39.918 71.1609ZM28.3036 73.1323L28.0532 73.8391L28.0604 73.8415L28.3036 73.1323ZM24.7568 70.9763L24.2319 71.5115L24.2374 71.5169L24.243 71.5221L24.7568 70.9763ZM22.6018 67.5279L22.0933 66.9761L21.7343 67.3069L21.8919 67.7692L22.6018 67.5279ZM23.2702 66.9122L24.0193 66.8753L23.9388 65.276L22.7617 66.3604L23.2702 66.9122ZM24.0396 82.2002L24.0773 82.9493L24.8263 82.9124L24.7886 82.1633L24.0396 82.2002ZM35.8117 64.8368L35.1827 64.4277L35.1811 64.4302L35.8117 64.8368ZM35.0599 49.8976L34.4685 50.3582L34.4741 50.3655L34.4799 50.3725L35.0599 49.8976ZM25.796 48.7811L26.2479 49.3802L26.2551 49.3747L26.2621 49.3692L25.796 48.7811ZM23.4079 52.2788L22.7006 52.0286L22.6978 52.0365L22.6952 52.0443L23.4079 52.2788ZM23.9754 63.5558L23.2898 63.8592V63.8592L23.9754 63.5558ZM26.6477 66.8622L26.243 67.4932L26.2557 67.5014L26.2687 67.509L26.6477 66.8622ZM16.5986 82.5672L17.3477 82.5303L15.3468 42.7698L14.5977 42.8068L13.8486 42.8437L15.8495 82.6042L16.5986 82.5672ZM14.5977 42.8068L14.6354 43.5558L21.7856 43.2032L21.7479 42.4541L21.7102 41.7051L14.56 42.0577L14.5977 42.8068ZM21.7479 42.4541L21.0001 42.5107L21.508 49.1289L22.2558 49.0722L23.0037 49.0156L22.4958 42.3975L21.7479 42.4541ZM22.2558 49.0722L22.5355 48.3767L21.7622 48.0652L21.4826 48.7607L21.2029 49.4563L21.9761 49.7678L22.2558 49.0722ZM21.4826 48.7607L22.2041 48.9662C22.8261 46.7755 23.9148 45.1392 25.4477 44.0036L25.0008 43.4009L24.5539 42.7981C22.7159 44.1597 21.4591 46.0967 20.761 48.5553L21.4826 48.7607ZM25.0008 43.4009L25.4507 44.0014C27.0416 42.8104 28.9376 42.1511 31.168 42.0411L31.1303 41.2921L31.0926 40.543C28.5949 40.6662 26.4045 41.4128 24.5509 42.8004L25.0008 43.4009ZM31.1303 41.2921L31.168 42.0411C33.985 41.9022 36.2929 42.4922 38.1428 43.7585L38.5661 43.1397L38.9893 42.521C36.8156 41.0332 34.1663 40.3914 31.0926 40.543L31.1303 41.2921ZM38.5661 43.1397L38.1487 43.7625C40.0761 45.055 41.5593 46.8278 42.5972 49.1035L43.2796 48.7929L43.962 48.4823C42.8165 45.9707 41.1572 43.9748 38.9834 42.517L38.5661 43.1397ZM43.2796 48.7929L42.5972 49.1035C43.6447 51.4 44.2473 53.9941 44.3934 56.8963L45.1425 56.8593L45.8915 56.8224C45.7373 53.7566 45.098 50.9731 43.962 48.4823L43.2796 48.7929ZM45.1425 56.8593L44.3934 56.8963C44.5392 59.7949 44.1817 62.433 43.3338 64.8204L44.0406 65.072L44.7474 65.3236C45.669 62.7287 46.046 59.8917 45.8915 56.8224L45.1425 56.8593ZM44.0406 65.072L43.3304 64.83C42.5261 67.1967 41.2283 69.1066 39.4402 70.5824L39.918 71.1609L40.3958 71.7395C42.4125 70.0751 43.8631 67.9257 44.7508 65.3139L44.0406 65.072ZM39.918 71.1609L39.4347 70.5869C37.721 72.0289 35.4838 72.8431 32.6668 72.9821L32.7045 73.7311L32.7422 74.4802C35.8159 74.3286 38.3877 73.4293 40.4013 71.735L39.918 71.1609ZM32.7045 73.7311L32.6668 72.9821C31.206 73.0541 29.8349 72.8659 28.5468 72.4231L28.3036 73.1323L28.0604 73.8415C29.5398 74.3501 31.1026 74.561 32.7422 74.4802L32.7045 73.7311ZM28.3036 73.1323L28.554 72.4256C27.3051 71.9822 26.213 71.3176 25.2706 70.4305L24.7568 70.9763L24.243 71.5221C25.3398 72.5546 26.6122 73.3274 28.0533 73.839L28.3036 73.1323ZM24.7568 70.9763L25.2817 70.4411C24.3871 69.564 23.7308 68.5161 23.3118 67.2866L22.6018 67.5279L21.8919 67.7692C22.3845 69.2142 23.1648 70.4653 24.2319 71.5115L24.7568 70.9763ZM22.6018 67.5279L23.1104 68.0797L23.7787 67.464L23.2702 66.9122L22.7617 66.3604L22.0933 66.9761L22.6018 67.5279ZM23.2702 66.9122L22.5211 66.9492L23.2905 82.2372L24.0396 82.2002L24.7886 82.1633L24.0193 66.8753L23.2702 66.9122ZM24.0396 82.2002L24.0019 81.4512L16.5609 81.8182L16.5986 82.5672L16.6363 83.3163L24.0773 82.9493L24.0396 82.2002ZM30.6563 67.7717L30.694 68.5207C33.1761 68.3983 35.1186 67.298 36.4424 65.2434L35.8117 64.8368L35.1811 64.4302C34.1265 66.067 32.632 66.9233 30.6186 67.0226L30.6563 67.7717ZM35.8117 64.8368L36.4408 65.2459C37.7818 63.1826 38.3246 60.476 38.16 57.2037L37.4109 57.2407L36.6618 57.2776C36.8169 60.3608 36.2937 62.7183 35.1827 64.4277L35.8117 64.8368ZM37.4109 57.2407L38.16 57.2037C37.9953 53.9328 37.1847 51.308 35.6399 49.4226L35.0599 49.8976L34.4799 50.3725C35.7499 51.9225 36.5065 54.193 36.6618 57.2776L37.4109 57.2407ZM35.0599 49.8976L35.6513 49.4369C34.1287 47.4835 32.0836 46.5546 29.5947 46.6774L29.6324 47.4264L29.6701 48.1755C31.6767 48.0765 33.25 48.795 34.4685 50.3582L35.0599 49.8976ZM29.6324 47.4264L29.5947 46.6774C27.9488 46.7585 26.5145 47.2548 25.33 48.193L25.796 48.7811L26.2621 49.3692C27.1698 48.6502 28.2931 48.2434 29.6701 48.1755L29.6324 47.4264ZM25.796 48.7811L25.3442 48.182C24.1525 49.0801 23.2815 50.382 22.7006 52.0286L23.4079 52.2788L24.1152 52.5289C24.6223 51.0916 25.3434 50.0618 26.2479 49.3802L25.796 48.7811ZM23.4079 52.2788L22.6952 52.0443C22.1525 53.6986 21.9545 55.6908 22.0706 57.9973L22.8197 57.9603L23.5688 57.9234C23.4586 55.7345 23.6528 53.939 24.1206 52.5132L23.4079 52.2788ZM22.8197 57.9603L22.0706 57.9973C22.1867 60.3037 22.5837 62.2666 23.2898 63.8592L23.9754 63.5558L24.661 63.2525C24.0524 61.8797 23.6789 60.1122 23.5688 57.9234L22.8197 57.9603ZM23.9754 63.5558L23.2898 63.8592C23.9938 65.4472 24.9709 66.6767 26.243 67.4932L26.6477 66.8622L27.0524 66.2312C26.0763 65.6046 25.2718 64.6299 24.661 63.2525L23.9754 63.5558ZM26.6477 66.8622L26.2687 67.509C27.571 68.2728 29.0555 68.6015 30.694 68.5207L30.6563 67.7717L30.6186 67.0226C29.2342 67.0909 28.0463 66.8134 27.0267 66.2154L26.6477 66.8622ZM55.5637 70.3893L55.1386 71.0068L55.1464 71.012L55.5637 70.3893ZM54.4668 57.8563L54.998 58.3863V58.3863L54.4668 57.8563ZM61.9183 54.2254L62.0974 54.9539L62.1006 54.9531L61.9183 54.2254ZM72.1053 51.6834L72.2876 52.4111L72.8854 52.2619L72.8544 51.6465L72.1053 51.6834ZM70.3452 46.817L69.8126 47.3446L69.822 47.3537L70.3452 46.817ZM61.6049 46.8401L62.1049 47.3997L62.1073 47.3975L61.6049 46.8401ZM59.6906 50.4893L59.6937 51.2392L60.3077 51.2373L60.4265 50.6351L59.6906 50.4893ZM52.1159 50.5132L51.3727 50.4109L51.2559 51.2659L52.119 51.2632L52.1159 50.5132ZM56.2699 42.7328L56.7404 43.3173L56.7465 43.3123L56.2699 42.7328ZM75.663 42.4755L75.1599 43.0314L75.1697 43.0399L75.663 42.4755ZM80.6319 64.7824L80.0929 65.3034L80.1103 65.3214L80.1288 65.3382L80.6319 64.7824ZM82.9806 65.1327L83.7296 65.0958L83.6919 64.3467L82.9429 64.3837L82.9806 65.1327ZM83.2526 70.5388L83.5253 71.2377L84.0289 71.0417L84.0017 70.5018L83.2526 70.5388ZM82.0988 70.7705L82.0078 70.026L82.0037 70.0265L82.0988 70.7705ZM77.0731 70.4939L76.8159 71.1981L76.8275 71.2024L76.8393 71.2063L77.0731 70.4939ZM74.6395 68.4578L73.9918 68.8354L73.9978 68.8454L74.6395 68.4578ZM73.6121 64.2545L74.0222 63.627L72.789 62.8205L72.863 64.2914L73.6121 64.2545ZM74.275 64.688L75.0136 64.8189L75.0995 64.3315L74.6851 64.0605L74.275 64.688ZM72.4246 68.4505L71.8592 67.9571L71.8589 67.9575L72.4246 68.4505ZM68.7108 71.0811L69.0091 71.7695V71.7695L68.7108 71.0811ZM69.0142 65.5302L69.4074 66.1692L69.4074 66.1692L69.0142 65.5302ZM71.667 62.6605L72.3374 62.9976V62.9976L71.667 62.6605ZM72.3598 56.7407L73.1089 56.7037L73.0628 55.7874L72.1739 56.0139L72.3598 56.7407ZM64.4195 58.764L64.2336 58.0372L64.2291 58.0384L64.4195 58.764ZM60.8943 60.5112L61.436 61.0304L61.4368 61.0296L60.8943 60.5112ZM61.2826 65.9115L60.8262 66.5062L60.8333 66.5117L60.8406 66.517L61.2826 65.9115ZM63.5228 72.2111L63.4851 71.4621C60.3394 71.6172 57.8602 71.0267 55.9811 69.7666L55.5637 70.3893L55.1464 71.012C57.3685 72.5021 60.1953 73.1262 63.5605 72.9602L63.5228 72.2111ZM55.5637 70.3893L55.9888 69.7718C54.1448 68.5016 53.156 66.6814 53.0321 64.2206L52.2831 64.2575L51.534 64.2945C51.6793 67.1816 52.8776 69.4492 55.1386 71.0067L55.5637 70.3893ZM52.2831 64.2575L53.0321 64.2206C52.906 61.7145 53.5852 59.8019 54.998 58.3863L54.4668 57.8563L53.9356 57.3263C52.1676 59.0978 51.3909 61.4527 51.534 64.2945L52.2831 64.2575ZM54.4668 57.8563L54.998 58.3863C56.4523 56.9291 58.7868 55.7646 62.0974 54.9539L61.9183 54.2254L61.7392 53.497C58.2953 54.3403 55.6621 55.5964 53.9356 57.3263L54.4668 57.8563ZM61.9183 54.2254L62.1006 54.9531L72.2876 52.4111L72.1053 51.6834L71.923 50.9558L61.736 53.4978L61.9183 54.2254ZM72.1053 51.6834L72.8544 51.6465C72.7383 49.3396 72.12 47.5001 70.8685 46.2802L70.3452 46.817L69.822 47.3537C70.6949 48.2047 71.25 49.6095 71.3562 51.7204L72.1053 51.6834ZM70.3452 46.817L70.8778 46.2894C69.6206 45.0205 67.8662 44.4984 65.7465 44.6029L65.7842 45.352L65.8219 46.101C67.6552 46.0106 68.9415 46.4652 69.8126 47.3445L70.3452 46.817ZM65.7842 45.352L65.7465 44.6029C63.8471 44.6966 62.2702 45.2307 61.1025 46.2828L61.6049 46.8401L62.1073 47.3975C62.9466 46.6413 64.1559 46.1832 65.8219 46.101L65.7842 45.352ZM61.6049 46.8401L61.1049 46.2806C59.9906 47.276 59.2883 48.6524 58.9547 50.3434L59.6906 50.4893L60.4265 50.6351C60.712 49.1876 61.2859 48.1313 62.1049 47.3996L61.6049 46.8401ZM59.6906 50.4893L59.6875 49.7393L52.1127 49.7632L52.1159 50.5132L52.119 51.2632L59.6937 51.2392L59.6906 50.4893ZM52.1159 50.5132L52.859 50.6155C53.291 47.4541 54.5941 45.0439 56.7404 43.3173L56.2699 42.7328L55.7993 42.1482C53.3156 44.1464 51.8493 46.9231 51.3727 50.4109L52.1159 50.5132ZM56.2699 42.7328L56.7465 43.3123C58.9041 41.5389 61.8107 40.5298 65.5323 40.3462L65.4946 39.5972L65.4569 38.8481C61.505 39.0431 58.2618 40.1243 55.7933 42.1532L56.2699 42.7328ZM65.4946 39.5972L65.5323 40.3462C69.8305 40.1343 72.9964 41.0731 75.16 43.0313L75.663 42.4755L76.166 41.9198C73.6079 39.6044 69.9948 38.6243 65.4569 38.8481L65.4946 39.5972ZM75.663 42.4755L75.1697 43.0399C77.3714 44.9647 78.6218 47.8684 78.8235 51.8765L79.5726 51.8396L80.3217 51.8027C80.106 47.5177 78.75 44.1786 76.1564 41.9112L75.663 42.4755ZM79.5726 51.8396L78.8235 51.8765L79.391 63.1536L80.1401 63.1167L80.8892 63.0797L80.3217 51.8027L79.5726 51.8396ZM80.1401 63.1167L79.391 63.1536C79.4335 63.9971 79.6037 64.7975 80.0929 65.3034L80.6319 64.7824L81.1708 64.2613C81.0863 64.1739 80.9287 63.8639 80.8892 63.0797L80.1401 63.1167ZM80.6319 64.7824L80.1288 65.3382C80.6453 65.8056 81.317 65.9657 82.03 65.9305L81.9923 65.1815L81.9546 64.4324C81.505 64.4546 81.2697 64.3486 81.1349 64.2266L80.6319 64.7824ZM81.9923 65.1815L82.03 65.9305L83.0183 65.8818L82.9806 65.1327L82.9429 64.3837L81.9546 64.4324L81.9923 65.1815ZM82.9806 65.1327L82.2315 65.1697L82.5035 70.5757L83.2526 70.5388L84.0017 70.5018L83.7296 65.0958L82.9806 65.1327ZM83.2526 70.5388L82.98 69.8398C82.846 69.892 82.5428 69.9611 82.0078 70.026L82.0988 70.7705L82.1897 71.515C82.7359 71.4488 83.202 71.3635 83.5253 71.2377L83.2526 70.5388ZM82.0988 70.7705L82.0037 70.0265C81.5222 70.0875 81.0192 70.1311 80.4944 70.157L80.5321 70.906L80.5698 71.6551C81.1301 71.6274 81.6716 71.5807 82.1938 71.5145L82.0988 70.7705ZM80.5321 70.906L80.4944 70.157C79.2908 70.2163 78.2319 70.0858 77.3068 69.7815L77.0731 70.4939L76.8393 71.2063C77.9685 71.5777 79.2156 71.7219 80.5698 71.6551L80.5321 70.906ZM77.0731 70.4939L77.3302 69.7896C76.4694 69.4746 75.7904 68.912 75.2812 68.0701L74.6395 68.4578L73.9978 68.8454C74.6752 69.9652 75.6186 70.76 76.8159 71.1981L77.0731 70.4939ZM74.6395 68.4578L75.2872 68.0802C74.7757 67.2041 74.4477 65.9364 74.3612 64.2175L73.6121 64.2545L72.863 64.2914C72.9559 66.1378 73.3129 67.6723 73.9919 68.8354L74.6395 68.4578ZM73.6121 64.2545L73.202 64.882L73.8649 65.3155L74.275 64.688L74.6851 64.0605L74.0222 63.627L73.6121 64.2545ZM74.275 64.688L73.5363 64.5571C73.3202 65.7832 72.7691 66.9143 71.8592 67.9571L72.4246 68.4505L72.99 68.9438C74.0637 67.7132 74.7462 66.336 75.0136 64.8189L74.275 64.688ZM72.4246 68.4505L71.8589 67.9575C70.987 68.9582 69.8452 69.7732 68.4125 70.3928L68.7108 71.0811L69.0091 71.7695C70.6183 71.0736 71.9523 70.1348 72.9904 68.9434L72.4246 68.4505ZM68.7108 71.0811L68.4125 70.3928C66.9868 71.0093 65.348 71.3702 63.4851 71.4621L63.5228 72.2111L63.5605 72.9602C65.573 72.8609 67.3929 72.4685 69.0091 71.7695L68.7108 71.0811ZM64.7621 66.7306L64.7998 67.4796C66.5652 67.3925 68.1109 66.9661 69.4074 66.1692L69.0142 65.5302L68.621 64.8912C67.581 65.5304 66.292 65.9042 64.7244 65.9815L64.7621 66.7306ZM69.0142 65.5302L69.4074 66.1692C70.6911 65.3802 71.6729 64.3204 72.3374 62.9976L71.667 62.6605L70.9967 62.3233C70.4606 63.3907 69.6737 64.2441 68.621 64.8912L69.0142 65.5302ZM71.667 62.6605L72.3374 62.9976C73.0059 61.6667 73.2819 60.1414 73.1967 58.4476L72.4476 58.4846L71.6985 58.5215C71.7732 60.0055 71.5288 61.2641 70.9967 62.3233L71.667 62.6605ZM72.4476 58.4846L73.1967 58.4476L73.1089 56.7037L72.3598 56.7407L71.6107 56.7776L71.6985 58.5215L72.4476 58.4846ZM72.3598 56.7407L72.1739 56.0139L64.2336 58.0372L64.4195 58.764L64.6054 59.4907L72.5457 57.4674L72.3598 56.7407ZM64.4195 58.764L64.2291 58.0384C62.5269 58.4833 61.1937 59.1117 60.3517 59.9929L60.8943 60.5112L61.4368 61.0296C61.9973 60.443 63.0142 59.9066 64.6098 59.4896L64.4195 58.764ZM60.8943 60.5112L60.3525 59.992C59.5261 60.8543 59.167 61.9541 59.2304 63.2156L59.9795 63.1787L60.7286 63.1417C60.6829 62.233 60.9336 61.5546 61.436 61.0304L60.8943 60.5112ZM59.9795 63.1787L59.2304 63.2156C59.2998 64.5927 59.8112 65.7269 60.8262 66.5062L61.2826 65.9115L61.739 65.3169C61.1375 64.855 60.7802 64.1672 60.7286 63.1417L59.9795 63.1787ZM61.2826 65.9115L60.8406 66.517C61.8732 67.2712 63.2241 67.5573 64.7998 67.4796L64.7621 66.7306L64.7244 65.9815C63.3548 66.0491 62.386 65.7891 61.7246 65.3061L61.2826 65.9115ZM90.4102 70.1857L89.6611 70.2227L89.6988 70.9717L90.4478 70.9348L90.4102 70.1857ZM88.848 39.1447L88.8103 38.3956L88.0612 38.4326L88.0989 39.1816L88.848 39.1447ZM95.5913 38.8121L96.3388 38.7502L96.2782 38.0273L95.5536 38.063L95.5913 38.8121ZM96.3208 47.5171L96.0776 48.2263L97.1641 48.5998L97.0682 47.4553L96.3208 47.5171ZM95.4313 47.2114L94.6844 47.142L94.6305 47.7289L95.1881 47.9206L95.4313 47.2114ZM97.0864 41.8851L96.4605 41.4711V41.4711L97.0864 41.8851ZM100.486 38.8037L100.147 38.1343V38.1343L100.486 38.8037ZM110.863 38.8747L110.486 39.5229L110.494 39.5271L110.863 38.8747ZM114.678 42.8822L114.012 43.2269L114.015 43.2325L114.678 42.8822ZM117.209 68.864L117.247 69.613L117.996 69.5761L117.958 68.827L117.209 68.864ZM109.768 69.231L109.019 69.2679L109.057 70.017L109.806 69.98L109.768 69.231ZM108.139 47.2839L108.848 47.0396V47.0396L108.139 47.2839ZM106.258 44.6378L105.801 45.2325L105.817 45.2447L105.834 45.256L106.258 44.6378ZM98.4073 46.1322L97.815 45.6714L97.8077 45.6811L98.4073 46.1322ZM97.8511 69.8187L97.8888 70.5678L98.6379 70.5308L98.6002 69.7818L97.8511 69.8187ZM90.4102 70.1857L91.1592 70.1488L89.5971 39.1077L88.848 39.1447L88.0989 39.1816L89.6611 70.2227L90.4102 70.1857ZM88.848 39.1447L88.8857 39.8937L95.629 39.5611L95.5913 38.8121L95.5536 38.063L88.8103 38.3956L88.848 39.1447ZM95.5913 38.8121L94.8439 38.874L95.5734 47.579L96.3208 47.5171L97.0682 47.4553L96.3388 38.7502L95.5913 38.8121ZM96.3208 47.5171L96.564 46.8079L95.6745 46.5022L95.4313 47.2114L95.1881 47.9206L96.0776 48.2263L96.3208 47.5171ZM95.4313 47.2114L96.1782 47.2807C96.3714 45.1782 96.897 43.5323 97.7122 42.2991L97.0864 41.8851L96.4605 41.4711C95.4706 42.9687 94.8928 44.8736 94.6844 47.142L95.4313 47.2114ZM97.0864 41.8851L97.7122 42.2991C98.5482 41.0344 99.5855 40.0992 100.825 39.4732L100.486 38.8037L100.147 38.1343C98.6589 38.886 97.4296 40.0051 96.4605 41.4711L97.0864 41.8851ZM100.486 38.8037L100.825 39.4732C102.087 38.8359 103.498 38.4737 105.069 38.3962L105.032 37.6472L104.994 36.8981C103.233 36.985 101.613 37.3939 100.147 38.1343L100.486 38.8037ZM105.032 37.6472L105.069 38.3962C107.245 38.2889 109.038 38.6803 110.486 39.5229L110.863 38.8747L111.24 38.2265C109.486 37.2068 107.391 36.7799 104.994 36.8981L105.032 37.6472ZM110.863 38.8747L110.494 39.5271C112.001 40.3815 113.172 41.6079 114.012 43.2269L114.678 42.8822L115.344 42.5376C114.376 40.6716 113.004 39.2263 111.232 38.2223L110.863 38.8747ZM114.678 42.8822L114.015 43.2325C114.856 44.8213 115.344 46.7244 115.457 48.9626L116.206 48.9256L116.955 48.8887C116.833 46.4764 116.303 44.3507 115.341 42.532L114.678 42.8822ZM116.206 48.9256L115.457 48.9626L116.46 68.9009L117.209 68.864L117.958 68.827L116.955 48.8887L116.206 48.9256ZM117.209 68.864L117.171 68.1149L109.731 68.4819L109.768 69.231L109.806 69.98L117.247 69.613L117.209 68.864ZM109.768 69.231L110.517 69.194L109.634 51.639L108.885 51.6759L108.136 51.7129L109.019 69.2679L109.768 69.231ZM108.885 51.6759L109.634 51.639C109.544 49.85 109.288 48.3111 108.848 47.0396L108.139 47.2839L107.43 47.5282C107.809 48.6249 108.05 50.0141 108.136 51.7129L108.885 51.6759ZM108.139 47.2839L108.848 47.0396C108.398 45.7381 107.687 44.7092 106.682 44.0196L106.258 44.6378L105.834 45.256C106.519 45.7263 107.062 46.4614 107.43 47.5282L108.139 47.2839ZM106.258 44.6378L106.714 44.0432C105.727 43.2855 104.473 42.9843 103.031 43.0554L103.069 43.8044L103.107 44.5535C104.3 44.4946 105.172 44.749 105.801 45.2325L106.258 44.6378ZM103.069 43.8044L103.031 43.0554C100.855 43.1627 99.0911 44.031 97.8151 45.6714L98.4073 46.1322L98.9996 46.593C99.986 45.3247 101.33 44.6411 103.107 44.5535L103.069 43.8044ZM98.4073 46.1322L97.8077 45.6811C96.5713 47.3249 96.081 49.5673 96.2185 52.3006L96.9676 52.2637L97.7167 52.2267C97.589 49.6897 98.0585 47.8444 99.0069 46.5834L98.4073 46.1322ZM96.9676 52.2637L96.2185 52.3006L97.102 69.8557L97.8511 69.8187L98.6002 69.7818L97.7167 52.2267L96.9676 52.2637ZM97.8511 69.8187L97.8134 69.0697L90.3725 69.4367L90.4102 70.1857L90.4478 70.9348L97.8888 70.5678L97.8511 69.8187ZM130.964 66.0294L130.461 66.5853L130.468 66.5919L130.964 66.0294ZM126.994 29.9791L126.956 29.23L126.207 29.267L126.244 30.016L126.994 29.9791ZM134.435 29.6121L135.184 29.5751L135.146 28.8261L134.397 28.863L134.435 29.6121ZM136.962 61.3048L136.477 61.8766L136.487 61.8849L136.497 61.8929L136.962 61.3048ZM144.269 61.7603L145.018 61.7233L144.981 60.9743L144.232 61.0112L144.269 61.7603ZM144.559 67.5151L144.597 68.2641L145.346 68.2272L145.308 67.4781L144.559 67.5151ZM122.766 43.2409L122.017 43.2778L122.054 44.0269L122.803 43.9899L122.766 43.2409ZM122.476 37.4861L122.438 36.737L121.689 36.774L121.727 37.523L122.476 37.4861ZM142.997 36.474L143.746 36.437L143.708 35.688L142.959 35.7249L142.997 36.474ZM143.286 42.2288L143.324 42.9778L144.073 42.9409L144.036 42.1918L143.286 42.2288ZM137.932 67.8419L137.894 67.0929C134.892 67.241 132.798 66.6463 131.46 65.467L130.964 66.0294L130.468 66.5919C132.22 68.1351 134.771 68.7487 137.97 68.591L137.932 67.8419ZM130.964 66.0294L131.467 65.4737C130.169 64.2988 129.372 62.3182 129.223 59.3556L128.474 59.3925L127.725 59.4295C127.884 62.5898 128.747 65.0338 130.461 66.5852L130.964 66.0294ZM128.474 59.3925L129.223 59.3556L127.743 29.9421L126.994 29.9791L126.244 30.016L127.725 59.4295L128.474 59.3925ZM126.994 29.9791L127.031 30.7281L134.472 30.3611L134.435 29.6121L134.397 28.863L126.956 29.23L126.994 29.9791ZM134.435 29.6121L133.685 29.649L135.131 58.3649L135.88 58.328L136.629 58.291L135.184 29.5751L134.435 29.6121ZM135.88 58.328L135.131 58.3649C135.206 59.8707 135.59 61.1239 136.477 61.8766L136.962 61.3048L137.447 60.7331C137.035 60.3843 136.697 59.653 136.629 58.291L135.88 58.328ZM136.962 61.3048L136.497 61.8929C137.351 62.5682 138.551 62.7932 139.947 62.7243L139.909 61.9753L139.872 61.2262C138.633 61.2873 137.868 61.0654 137.427 60.7168L136.962 61.3048ZM139.909 61.9753L139.947 62.7243L144.307 62.5093L144.269 61.7603L144.232 61.0112L139.872 61.2262L139.909 61.9753ZM144.269 61.7603L143.52 61.7972L143.81 67.552L144.559 67.5151L145.308 67.4781L145.018 61.7233L144.269 61.7603ZM144.559 67.5151L144.521 66.766L137.894 67.0929L137.932 67.8419L137.97 68.591L144.597 68.2641L144.559 67.5151ZM122.766 43.2409L123.515 43.2039L123.225 37.4491L122.476 37.4861L121.727 37.523L122.017 43.2778L122.766 43.2409ZM122.476 37.4861L122.514 38.2351L143.035 37.223L142.997 36.474L142.959 35.7249L122.438 36.737L122.476 37.4861ZM142.997 36.474L142.248 36.5109L142.537 42.2657L143.286 42.2288L144.036 42.1918L143.746 36.437L142.997 36.474ZM143.286 42.2288L143.249 41.4797L122.728 42.4918L122.766 43.2409L122.803 43.9899L143.324 42.9778L143.286 42.2288ZM153.258 65.5709L152.833 66.1884L152.84 66.1936L153.258 65.5709ZM152.161 53.0379L152.692 53.5679V53.5679L152.161 53.0379ZM159.612 49.4071L159.791 50.1355L159.795 50.1347L159.612 49.4071ZM169.799 46.8651L169.982 47.5927L170.579 47.4436L170.548 46.8281L169.799 46.8651ZM168.039 41.9986L167.507 42.5262L167.516 42.5354L168.039 41.9986ZM159.299 42.0218L159.799 42.5813L159.801 42.5791L159.299 42.0218ZM157.385 45.6709L157.388 46.4208L158.002 46.4189L158.12 45.8167L157.385 45.6709ZM149.81 45.6948L149.067 45.5926L148.95 46.4475L149.813 46.4448L149.81 45.6948ZM153.964 37.9144L154.434 38.4989L154.44 38.4939L153.964 37.9144ZM173.357 37.6572L172.854 38.213L172.864 38.2216L173.357 37.6572ZM178.326 59.964L177.787 60.4851L177.804 60.503L177.823 60.5198L178.326 59.964ZM180.675 60.3143L181.424 60.2774L181.386 59.5284L180.637 59.5653L180.675 60.3143ZM180.947 65.7204L181.219 66.4193L181.723 66.2233L181.696 65.6834L180.947 65.7204ZM179.793 65.9521L179.702 65.2076L179.698 65.2081L179.793 65.9521ZM174.767 65.6755L174.51 66.3798L174.522 66.384L174.533 66.3879L174.767 65.6755ZM172.333 63.6394L171.686 64.0171L171.692 64.0271L172.333 63.6394ZM171.306 59.4361L171.716 58.8086L170.483 58.0021L170.557 59.4731L171.306 59.4361ZM171.969 59.8696L172.708 60.0005L172.794 59.5131L172.379 59.2421L171.969 59.8696ZM170.119 63.6321L169.553 63.1388L169.553 63.1392L170.119 63.6321ZM166.405 66.2628L166.703 66.9512V66.9512L166.405 66.2628ZM166.708 60.7118L167.101 61.3508L167.101 61.3508L166.708 60.7118ZM169.361 57.8421L170.031 58.1793V58.1793L169.361 57.8421ZM170.054 51.9223L170.803 51.8854L170.757 50.9691L169.868 51.1956L170.054 51.9223ZM162.113 53.9456L161.928 53.2188L161.923 53.22L162.113 53.9456ZM158.588 55.6929L159.13 56.2121L159.131 56.2112L158.588 55.6929ZM158.977 61.0931L158.52 61.6878L158.527 61.6933L158.535 61.6986L158.977 61.0931ZM161.217 67.3928L161.179 66.6437C158.033 66.7989 155.554 66.2083 153.675 64.9482L153.258 65.5709L152.84 66.1936C155.062 67.6838 157.889 68.3078 161.254 68.1418L161.217 67.3928ZM153.258 65.5709L153.683 64.9535C151.839 63.6832 150.85 61.863 150.726 59.4022L149.977 59.4392L149.228 59.4761C149.373 62.3632 150.572 64.6308 152.833 66.1884L153.258 65.5709ZM149.977 59.4392L150.726 59.4022C150.6 56.8961 151.279 54.9835 152.692 53.5679L152.161 53.0379L151.63 52.5079C149.862 54.2794 149.085 56.6343 149.228 59.4761L149.977 59.4392ZM152.161 53.0379L152.692 53.5679C154.146 52.1107 156.481 50.9462 159.791 50.1355L159.612 49.4071L159.433 48.6786C155.989 49.5219 153.356 50.778 151.63 52.5079L152.161 53.0379ZM159.612 49.4071L159.795 50.1347L169.982 47.5927L169.799 46.8651L169.617 46.1374L159.43 48.6794L159.612 49.4071ZM169.799 46.8651L170.548 46.8281C170.432 44.5212 169.814 42.6817 168.562 41.4618L168.039 41.9986L167.516 42.5354C168.389 43.3863 168.944 44.7911 169.05 46.902L169.799 46.8651ZM168.039 41.9986L168.572 41.4711C167.315 40.2021 165.56 39.68 163.44 39.7846L163.478 40.5336L163.516 41.2827C165.349 41.1923 166.635 41.6468 167.507 42.5261L168.039 41.9986ZM163.478 40.5336L163.44 39.7846C161.541 39.8783 159.964 40.4123 158.796 41.4644L159.299 42.0218L159.801 42.5791C160.641 41.8229 161.85 41.3648 163.516 41.2827L163.478 40.5336ZM159.299 42.0218L158.799 41.4623C157.685 42.4576 156.982 43.834 156.649 45.5251L157.385 45.6709L158.12 45.8167C158.406 44.3693 158.98 43.3129 159.799 42.5813L159.299 42.0218ZM157.385 45.6709L157.381 44.9209L149.807 44.9449L149.81 45.6948L149.813 46.4448L157.388 46.4208L157.385 45.6709ZM149.81 45.6948L150.553 45.7971C150.985 42.6358 152.288 40.2255 154.434 38.4989L153.964 37.9144L153.493 37.3299C151.01 39.328 149.543 42.1047 149.067 45.5926L149.81 45.6948ZM153.964 37.9144L154.44 38.4939C156.598 36.7206 159.505 35.7114 163.226 35.5279L163.189 34.7788L163.151 34.0298C159.199 34.2247 155.956 35.3059 153.487 37.3348L153.964 37.9144ZM163.189 34.7788L163.226 35.5279C167.524 35.3159 170.69 36.2547 172.854 38.213L173.357 37.6572L173.86 37.1014C171.302 34.786 167.689 33.806 163.151 34.0298L163.189 34.7788ZM173.357 37.6572L172.864 38.2216C175.065 40.1464 176.316 43.05 176.517 47.0582L177.267 47.0212L178.016 46.9843C177.8 42.6993 176.444 39.3603 173.85 37.0928L173.357 37.6572ZM177.267 47.0212L176.517 47.0582L177.085 58.3353L177.834 58.2983L178.583 58.2614L178.016 46.9843L177.267 47.0212ZM177.834 58.2983L177.085 58.3353C177.127 59.1788 177.298 59.9792 177.787 60.4851L178.326 59.964L178.865 59.4429C178.78 59.3555 178.623 59.0455 178.583 58.2614L177.834 58.2983ZM178.326 59.964L177.823 60.5198C178.339 60.9872 179.011 61.1473 179.724 61.1121L179.686 60.3631L179.649 59.614C179.199 59.6362 178.964 59.5303 178.829 59.4082L178.326 59.964ZM179.686 60.3631L179.724 61.1121L180.712 61.0634L180.675 60.3143L180.637 59.5653L179.649 59.614L179.686 60.3631ZM180.675 60.3143L179.925 60.3513L180.198 65.7573L180.947 65.7204L181.696 65.6834L181.424 60.2774L180.675 60.3143ZM180.947 65.7204L180.674 65.0214C180.54 65.0736 180.237 65.1428 179.702 65.2076L179.793 65.9521L179.884 66.6966C180.43 66.6304 180.896 66.5451 181.219 66.4193L180.947 65.7204ZM179.793 65.9521L179.698 65.2081C179.216 65.2691 178.713 65.3127 178.188 65.3386L178.226 66.0877L178.264 66.8367C178.824 66.8091 179.366 66.7623 179.888 66.6961L179.793 65.9521ZM178.226 66.0877L178.188 65.3386C176.985 65.398 175.926 65.2674 175.001 64.9631L174.767 65.6755L174.533 66.3879C175.662 66.7593 176.91 66.9035 178.264 66.8367L178.226 66.0877ZM174.767 65.6755L175.024 64.9713C174.163 64.6563 173.484 64.0936 172.975 63.2518L172.333 63.6394L171.692 64.0271C172.369 65.1468 173.313 65.9416 174.51 66.3798L174.767 65.6755ZM172.333 63.6394L172.981 63.2618C172.47 62.3857 172.142 61.1181 172.055 59.3992L171.306 59.4361L170.557 59.4731C170.65 61.3194 171.007 62.854 171.686 64.017L172.333 63.6394ZM171.306 59.4361L170.896 60.0636L171.559 60.4971L171.969 59.8696L172.379 59.2421L171.716 58.8086L171.306 59.4361ZM171.969 59.8696L171.23 59.7387C171.014 60.9649 170.463 62.096 169.553 63.1388L170.119 63.6321L170.684 64.1255C171.758 62.8949 172.44 61.5177 172.708 60.0005L171.969 59.8696ZM170.119 63.6321L169.553 63.1392C168.681 64.1398 167.539 64.9548 166.106 65.5744L166.405 66.2628L166.703 66.9512C168.312 66.2553 169.646 65.3164 170.684 64.1251L170.119 63.6321ZM166.405 66.2628L166.106 65.5744C164.681 66.1909 163.042 66.5518 161.179 66.6437L161.217 67.3928L161.254 68.1418C163.267 68.0426 165.087 67.6501 166.703 66.9512L166.405 66.2628ZM162.456 61.9122L162.494 62.6612C164.259 62.5742 165.805 62.1477 167.101 61.3508L166.708 60.7118L166.315 60.0728C165.275 60.712 163.986 61.0858 162.418 61.1631L162.456 61.9122ZM166.708 60.7118L167.101 61.3508C168.385 60.5618 169.367 59.5021 170.031 58.1793L169.361 57.8421L168.691 57.505C168.155 58.5723 167.368 59.4257 166.315 60.0728L166.708 60.7118ZM169.361 57.8421L170.031 58.1793C170.7 56.8483 170.976 55.323 170.891 53.6292L170.142 53.6662L169.392 53.7031C169.467 55.1871 169.223 56.4458 168.691 57.505L169.361 57.8421ZM170.142 53.6662L170.891 53.6292L170.803 51.8854L170.054 51.9223L169.305 51.9593L169.392 53.7031L170.142 53.6662ZM170.054 51.9223L169.868 51.1956L161.928 53.2189L162.113 53.9456L162.299 54.6723L170.24 52.6491L170.054 51.9223ZM162.113 53.9456L161.923 53.22C160.221 53.6649 158.888 54.2933 158.046 55.1745L158.588 55.6929L159.131 56.2112C159.691 55.6247 160.708 55.0882 162.304 54.6712L162.113 53.9456ZM158.588 55.6929L158.047 55.1737C157.22 56.0359 156.861 57.1357 156.924 58.3972L157.674 58.3603L158.423 58.3233C158.377 57.4147 158.628 56.7362 159.13 56.2121L158.588 55.6929ZM157.674 58.3603L156.924 58.3972C156.994 59.7744 157.505 60.9085 158.52 61.6878L158.977 61.0931L159.433 60.4985C158.831 60.0367 158.474 59.3489 158.423 58.3233L157.674 58.3603ZM158.977 61.0931L158.535 61.6986C159.567 62.4528 160.918 62.739 162.494 62.6612L162.456 61.9122L162.418 61.1631C161.049 61.2307 160.08 60.9708 159.419 60.4877L158.977 61.0931ZM189.597 63.5455L190.056 62.9528V62.9528L189.597 63.5455ZM185.573 24.1179L185.535 23.3689L184.786 23.4058L184.824 24.1549L185.573 24.1179ZM193.014 23.7509L193.763 23.714L193.725 22.9649L192.976 23.0019L193.014 23.7509ZM195.353 58.658L194.85 59.2138L194.864 59.2258L194.877 59.2371L195.353 58.658ZM199.394 59.0415L200.143 59.0045L200.105 58.2555L199.356 58.2924L199.394 59.0415ZM199.683 64.7963L199.721 65.5453L200.47 65.5084L200.432 64.7593L199.683 64.7963ZM195.091 65.0228L195.053 64.2737C192.937 64.3781 191.295 63.9128 190.056 62.9528L189.597 63.5455L189.138 64.1383C190.728 65.3697 192.75 65.8892 195.129 65.7718L195.091 65.0228ZM189.597 63.5455L190.056 62.9528C188.879 62.0412 188.153 60.4649 188.03 58.0285L187.281 58.0655L186.532 58.1024C186.667 60.7814 187.485 62.8585 189.138 64.1383L189.597 63.5455ZM187.281 58.0655L188.03 58.0285L186.322 24.081L185.573 24.1179L184.824 24.1549L186.532 58.1024L187.281 58.0655ZM185.573 24.1179L185.611 24.867L193.052 24.5L193.014 23.7509L192.976 23.0019L185.535 23.3689L185.573 24.1179ZM193.014 23.7509L192.265 23.7879L193.935 56.9797L194.684 56.9428L195.433 56.9058L193.763 23.714L193.014 23.7509ZM194.684 56.9428L193.935 56.9797C193.98 57.8703 194.244 58.6647 194.85 59.2138L195.353 58.658L195.856 58.1022C195.649 57.9144 195.467 57.5654 195.433 56.9058L194.684 56.9428ZM195.353 58.658L194.877 59.2371C195.504 59.7523 196.295 59.9452 197.164 59.9023L197.127 59.1533L197.089 58.4042C196.485 58.434 196.094 58.2967 195.829 58.0789L195.353 58.658ZM197.127 59.1533L197.164 59.9023L199.431 59.7905L199.394 59.0415L199.356 58.2924L197.089 58.4042L197.127 59.1533ZM199.394 59.0415L198.645 59.0784L198.934 64.8332L199.683 64.7963L200.432 64.7593L200.143 59.0045L199.394 59.0415ZM199.683 64.7963L199.646 64.0472L195.053 64.2737L195.091 65.0228L195.129 65.7718L199.721 65.5453L199.683 64.7963ZM208.612 62.6077L209.071 62.0149V62.0149L208.612 62.6077ZM204.589 23.1801L204.551 22.431L203.802 22.4679L203.839 23.217L204.589 23.1801ZM212.029 22.8131L212.779 22.7761L212.741 22.0271L211.992 22.064L212.029 22.8131ZM214.369 57.7201L213.866 58.2759L213.879 58.2879L213.893 58.2992L214.369 57.7201ZM218.409 58.1036L219.158 58.0666L219.121 57.3176L218.372 57.3545L218.409 58.1036ZM218.699 63.8584L218.737 64.6074L219.486 64.5705L219.448 63.8214L218.699 63.8584ZM214.107 64.0849L214.069 63.3358C211.952 63.4402 210.311 62.9749 209.071 62.0149L208.612 62.6077L208.154 63.2004C209.744 64.4318 211.765 64.9513 214.144 64.8339L214.107 64.0849ZM208.612 62.6077L209.071 62.0149C207.894 61.1033 207.169 59.5271 207.046 57.0906L206.297 57.1276L205.548 57.1645C205.683 59.8435 206.501 61.9206 208.154 63.2004L208.612 62.6077ZM206.297 57.1276L207.046 57.0906L205.338 23.1431L204.589 23.1801L203.839 23.217L205.548 57.1645L206.297 57.1276ZM204.589 23.1801L204.626 23.9291L212.067 23.5621L212.029 22.8131L211.992 22.064L204.551 22.431L204.589 23.1801ZM212.029 22.8131L211.28 22.85L212.951 56.0419L213.7 56.0049L214.449 55.968L212.779 22.7761L212.029 22.8131ZM213.7 56.0049L212.951 56.0419C212.996 56.9324 213.259 57.7269 213.866 58.2759L214.369 57.7201L214.872 57.1643C214.665 56.9766 214.482 56.6276 214.449 55.968L213.7 56.0049ZM214.369 57.7201L213.893 58.2992C214.52 58.8144 215.311 59.0073 216.18 58.9645L216.142 58.2154L216.104 57.4664C215.501 57.4961 215.11 57.3588 214.845 57.141L214.369 57.7201ZM216.142 58.2154L216.18 58.9645L218.447 58.8526L218.409 58.1036L218.372 57.3545L216.104 57.4664L216.142 58.2154ZM218.409 58.1036L217.66 58.1405L217.95 63.8953L218.699 63.8584L219.448 63.8214L219.158 58.0666L218.409 58.1036ZM218.699 63.8584L218.661 63.1093L214.069 63.3358L214.107 64.0849L214.144 64.8339L218.737 64.6074L218.699 63.8584ZM227.222 61.9229L226.797 62.5404L226.805 62.5456L227.222 61.9229ZM226.125 49.3899L226.656 49.9199V49.9199L226.125 49.3899ZM233.576 45.7591L233.756 46.4875L233.759 46.4867L233.576 45.7591ZM243.764 43.2171L243.946 43.9447L244.544 43.7956L244.513 43.1801L243.764 43.2171ZM242.003 38.3506L241.471 38.8782L241.48 38.8874L242.003 38.3506ZM233.263 38.3738L233.763 38.9333L233.765 38.9311L233.263 38.3738ZM231.349 42.0229L231.352 42.7728L231.966 42.7709L232.085 42.1687L231.349 42.0229ZM223.774 42.0468L223.031 41.9446L222.914 42.7995L223.777 42.7968L223.774 42.0468ZM227.928 34.2664L228.399 34.8509L228.405 34.8459L227.928 34.2664ZM247.321 34.0092L246.818 34.565L246.828 34.5736L247.321 34.0092ZM252.29 56.316L251.751 56.8371L251.768 56.855L251.787 56.8718L252.29 56.316ZM254.639 56.6664L255.388 56.6294L255.35 55.8804L254.601 55.9173L254.639 56.6664ZM254.911 62.0724L255.183 62.7713L255.687 62.5753L255.66 62.0354L254.911 62.0724ZM253.757 62.3041L253.666 61.5596L253.662 61.5601L253.757 62.3041ZM248.731 62.0275L248.474 62.7318L248.486 62.736L248.498 62.7399L248.731 62.0275ZM246.298 59.9914L245.65 60.3691L245.656 60.3791L246.298 59.9914ZM245.27 55.7881L245.68 55.1606L244.447 54.3541L244.521 55.8251L245.27 55.7881ZM245.933 56.2216L246.672 56.3525L246.758 55.8652L246.343 55.5941L245.933 56.2216ZM244.083 59.9841L243.517 59.4908L243.517 59.4912L244.083 59.9841ZM240.369 62.6148L240.667 63.3032V63.3032L240.369 62.6148ZM240.672 57.0638L241.066 57.7028L241.066 57.7028L240.672 57.0638ZM243.325 54.1941L243.996 54.5313V54.5313L243.325 54.1941ZM244.018 48.2743L244.767 48.2374L244.721 47.3211L243.832 47.5476L244.018 48.2743ZM236.078 50.2976L235.892 49.5708L235.887 49.572L236.078 50.2976ZM232.552 52.0449L233.094 52.5641L233.095 52.5632L232.552 52.0449ZM232.941 57.4452L232.484 58.0398L232.491 58.0453L232.499 58.0506L232.941 57.4452ZM235.181 63.7448L235.143 62.9957C231.998 63.1509 229.518 62.5603 227.639 61.3002L227.222 61.9229L226.805 62.5456C229.027 64.0358 231.853 64.6598 235.219 64.4938L235.181 63.7448ZM227.222 61.9229L227.647 61.3055C225.803 60.0352 224.814 58.215 224.69 55.7542L223.941 55.7912L223.192 55.8281C223.337 58.7152 224.536 60.9829 226.797 62.5404L227.222 61.9229ZM223.941 55.7912L224.69 55.7542C224.564 53.2481 225.243 51.3355 226.656 49.9199L226.125 49.3899L225.594 48.8599C223.826 50.6314 223.049 52.9863 223.192 55.8281L223.941 55.7912ZM226.125 49.3899L226.656 49.9199C228.11 48.4627 230.445 47.2982 233.756 46.4875L233.576 45.7591L233.397 45.0306C229.953 45.874 227.32 47.13 225.594 48.8599L226.125 49.3899ZM233.576 45.7591L233.759 46.4867L243.946 43.9447L243.764 43.2171L243.581 42.4894L233.394 45.0314L233.576 45.7591ZM243.764 43.2171L244.513 43.1801C244.396 40.8732 243.778 39.0337 242.527 37.8139L242.003 38.3506L241.48 38.8874C242.353 39.7383 242.908 41.1431 243.014 43.254L243.764 43.2171ZM242.003 38.3506L242.536 37.8231C241.279 36.5541 239.524 36.032 237.405 36.1366L237.442 36.8856L237.48 37.6347C239.313 37.5443 240.6 37.9989 241.471 38.8781L242.003 38.3506ZM237.442 36.8856L237.405 36.1366C235.505 36.2303 233.928 36.7643 232.761 37.8164L233.263 38.3738L233.765 38.9311C234.605 38.1749 235.814 37.7169 237.48 37.6347L237.442 36.8856ZM233.263 38.3738L232.763 37.8143C231.649 38.8096 230.946 40.186 230.613 41.8771L231.349 42.0229L232.085 42.1687C232.37 40.7213 232.944 39.6649 233.763 38.9333L233.263 38.3738ZM231.349 42.0229L231.346 41.2729L223.771 41.2969L223.774 42.0468L223.777 42.7968L231.352 42.7728L231.349 42.0229ZM223.774 42.0468L224.517 42.1491C224.949 38.9878 226.252 36.5775 228.399 34.8509L227.928 34.2664L227.458 33.6819C224.974 35.68 223.508 38.4567 223.031 41.9446L223.774 42.0468ZM227.928 34.2664L228.405 34.8459C230.562 33.0726 233.469 32.0634 237.19 31.8799L237.153 31.1308L237.115 30.3818C233.163 30.5767 229.92 31.6579 227.451 33.6868L227.928 34.2664ZM237.153 31.1308L237.19 31.8799C241.489 31.6679 244.655 32.6067 246.818 34.565L247.321 34.0092L247.824 33.4534C245.266 31.138 241.653 30.158 237.115 30.3818L237.153 31.1308ZM247.321 34.0092L246.828 34.5736C249.03 36.4984 250.28 39.4021 250.482 43.4102L251.231 43.3732L251.98 43.3363C251.764 39.0513 250.408 35.7123 247.815 33.4448L247.321 34.0092ZM251.231 43.3732L250.482 43.4102L251.049 54.6873L251.798 54.6503L252.547 54.6134L251.98 43.3363L251.231 43.3732ZM251.798 54.6503L251.049 54.6873C251.092 55.5308 251.262 56.3312 251.751 56.8371L252.29 56.316L252.829 55.7949C252.744 55.7075 252.587 55.3975 252.547 54.6134L251.798 54.6503ZM252.29 56.316L251.787 56.8718C252.303 57.3392 252.975 57.4993 253.688 57.4642L253.65 56.7151L253.613 55.966C253.163 55.9882 252.928 55.8823 252.793 55.7602L252.29 56.316ZM253.65 56.7151L253.688 57.4642L254.676 57.4154L254.639 56.6664L254.601 55.9173L253.613 55.966L253.65 56.7151ZM254.639 56.6664L253.89 56.7033L254.162 62.1093L254.911 62.0724L255.66 62.0354L255.388 56.6294L254.639 56.6664ZM254.911 62.0724L254.638 61.3735C254.504 61.4256 254.201 61.4948 253.666 61.5596L253.757 62.3041L253.848 63.0486C254.394 62.9824 254.86 62.8971 255.183 62.7713L254.911 62.0724ZM253.757 62.3041L253.662 61.5601C253.18 61.6211 252.677 61.6647 252.153 61.6906L252.19 62.4397L252.228 63.1887C252.788 63.1611 253.33 63.1143 253.852 63.0481L253.757 62.3041ZM252.19 62.4397L252.153 61.6906C250.949 61.75 249.89 61.6194 248.965 61.3151L248.731 62.0275L248.498 62.7399C249.627 63.1113 250.874 63.2555 252.228 63.1887L252.19 62.4397ZM248.731 62.0275L248.988 61.3233C248.128 61.0083 247.449 60.4457 246.939 59.6038L246.298 59.9914L245.656 60.3791C246.333 61.4988 247.277 62.2936 248.474 62.7318L248.731 62.0275ZM246.298 59.9914L246.945 59.6138C246.434 58.7377 246.106 57.4701 246.019 55.7512L245.27 55.7881L244.521 55.8251C244.614 57.6714 244.971 59.206 245.65 60.369L246.298 59.9914ZM245.27 55.7881L244.86 56.4156L245.523 56.8491L245.933 56.2216L246.343 55.5941L245.68 55.1606L245.27 55.7881ZM245.933 56.2216L245.194 56.0907C244.978 57.3169 244.427 58.448 243.517 59.4908L244.083 59.9841L244.648 60.4775C245.722 59.2469 246.404 57.8697 246.672 56.3525L245.933 56.2216ZM244.083 59.9841L243.517 59.4912C242.645 60.4919 241.503 61.3068 240.071 61.9264L240.369 62.6148L240.667 63.3032C242.276 62.6073 243.611 61.6684 244.649 60.4771L244.083 59.9841ZM240.369 62.6148L240.071 61.9264C238.645 62.5429 237.006 62.9038 235.143 62.9957L235.181 63.7448L235.219 64.4938C237.231 64.3946 239.051 64.0021 240.667 63.3032L240.369 62.6148ZM236.42 58.2642L236.458 59.0132C238.223 58.9262 239.769 58.4997 241.066 57.7028L240.672 57.0638L240.279 56.4248C239.239 57.064 237.95 57.4378 236.383 57.5151L236.42 58.2642ZM240.672 57.0638L241.066 57.7028C242.349 56.9138 243.331 55.8541 243.996 54.5313L243.325 54.1941L242.655 53.857C242.119 54.9244 241.332 55.7777 240.279 56.4248L240.672 57.0638ZM243.325 54.1941L243.996 54.5313C244.664 53.2003 244.94 51.675 244.855 49.9813L244.106 50.0182L243.357 50.0551C243.431 51.5391 243.187 52.7978 242.655 53.857L243.325 54.1941ZM244.106 50.0182L244.855 49.9813L244.767 48.2374L244.018 48.2743L243.269 48.3113L243.357 50.0551L244.106 50.0182ZM244.018 48.2743L243.832 47.5476L235.892 49.5709L236.078 50.2976L236.264 51.0244L244.204 49.0011L244.018 48.2743ZM236.078 50.2976L235.887 49.572C234.185 50.0169 232.852 50.6453 232.01 51.5265L232.552 52.0449L233.095 52.5632C233.655 51.9767 234.672 51.4402 236.268 51.0232L236.078 50.2976ZM232.552 52.0449L232.011 51.5257C231.184 52.3879 230.825 53.4877 230.889 54.7492L231.638 54.7123L232.387 54.6753C232.341 53.7667 232.592 53.0882 233.094 52.5641L232.552 52.0449ZM231.638 54.7123L230.889 54.7492C230.958 56.1264 231.469 57.2605 232.484 58.0398L232.941 57.4452L233.397 56.8505C232.796 56.3887 232.438 55.7009 232.387 54.6753L231.638 54.7123ZM232.941 57.4452L232.499 58.0506C233.531 58.8048 234.882 59.091 236.458 59.0132L236.42 58.2642L236.383 57.5151C235.013 57.5827 234.044 57.3228 233.383 56.8397L232.941 57.4452ZM262.501 70.9053L261.777 70.7062L261.503 71.7054L262.538 71.6543L262.501 70.9053ZM265.061 61.5718L265.785 61.7708L266.059 60.7716L265.024 60.8227L265.061 61.5718ZM261.515 61.7467L260.766 61.7836L260.804 62.5327L261.553 62.4957L261.515 61.7467ZM261.106 53.6085L261.068 52.8595L260.319 52.8964L260.357 53.6455L261.106 53.6085ZM269.593 53.1899L270.342 53.153L270.304 52.4039L269.555 52.4409L269.593 53.1899ZM269.956 60.398L270.669 60.6291L270.712 60.4983L270.705 60.361L269.956 60.398ZM266.628 70.7017L266.666 71.4508L267.183 71.4253L267.342 70.9328L266.628 70.7017ZM262.501 70.9053L263.224 71.1044L265.785 61.7708L265.061 61.5718L264.338 61.3727L261.777 70.7062L262.501 70.9053ZM265.061 61.5718L265.024 60.8227L261.477 60.9976L261.515 61.7467L261.553 62.4957L265.099 62.3208L265.061 61.5718ZM261.515 61.7467L262.264 61.7097L261.855 53.5716L261.106 53.6085L260.357 53.6455L260.766 61.7836L261.515 61.7467ZM261.106 53.6085L261.143 54.3576L269.631 53.939L269.593 53.1899L269.555 52.4409L261.068 52.8595L261.106 53.6085ZM269.593 53.1899L268.844 53.2269L269.207 60.4349L269.956 60.398L270.705 60.361L270.342 53.153L269.593 53.1899ZM269.956 60.398L269.242 60.1669L265.914 70.4706L266.628 70.7017L267.342 70.9328L270.669 60.6291L269.956 60.398ZM266.628 70.7017L266.59 69.9527L262.463 70.1562L262.501 70.9053L262.538 71.6543L266.666 71.4508L266.628 70.7017Z" fill="white"/>
</svg>
